<svg version="1" xmlns="http://www.w3.org/2000/svg" width="1365.333" height="1365.333" viewBox="0 0 1024.000000 1024.000000"><path d="M85.4 1.6C74.3 3.4 59.3 9 49.6 14.7 39.1 21 24.4 35.1 17.4 45.6 11.2 54.9 5 69.1 2.3 80.2.6 87.1.5 109.3.2 507c-.3 320.7-.1 421.5.9 428 3.2 23.1 13.5 43.5 30.1 59.6 14.1 13.7 31.3 23.1 50.1 27.1 7.8 1.7 29.7 1.8 430.7 1.8s422.9-.1 430.7-1.8c19.4-4.2 37.9-14.4 51.9-28.9 15.2-15.5 24.1-33 27.9-54.8 1.3-7.4 1.5-60.6 1.5-425.5 0-367-.2-418.1-1.5-426.3-3.6-22.4-14.1-42.1-31.1-58.3-14.6-14-33-23-53.9-26.4C924.5-.6 98-.6 85.4 1.6zM392 473.5V807h328v79l-207.2-.2-207.3-.3-.3-372.8L305 140h87v333.5z"/></svg>